<?xml version="1.0" encoding="UTF-8"?>
<svg id="Layer_1" xmlns="http://www.w3.org/2000/svg" version="1.1" viewBox="25 448 949 104">
  <!-- Generator: Adobe Illustrator 30.1.0, SVG Export Plug-In . SVG Version: 2.1.1 Build 136)  -->
  <defs>
    <style>
      .st0 {
        fill: #fff;
      }

      .st1 {
        fill: #df1f26;
      }
    </style>
  </defs>
  <g>
    <path class="st0" d="M35.23,541.3l14.63-82.61h59c15.58,0,22.03,7.87,19.35,23.6l-2.83,16.52c-1.34,7.87-3.88,13.38-7.61,16.52-3.74,3.15-9.54,4.72-17.41,4.72h-30.68l-3.78,21.24h-30.68ZM73.7,497.64h16.88c1.73,0,2.93-.31,3.6-.94.67-.63,1.16-1.81,1.48-3.54l1.18-6.37c.31-1.73.18-2.91-.41-3.54-.59-.63-1.75-.94-3.48-.94h-16.64l-2.6,15.34Z"/>
    <path class="st0" d="M180.85,477.58h4.96l-4.84,26.91h-13.33c-2.83,0-4.92.63-6.25,1.89l-2.01,1.65-5.9,33.28h-28.79l11.33-63.72h20.53l1.06,8.02c4.25-3.46,7.75-5.66,10.5-6.61,2.75-.94,7-1.42,12.74-1.42Z"/>
    <path class="st0" d="M237.97,477.58c15.58,0,21.99,7.79,19.24,23.37l-7.2,40.36h-24.07l-.83-5.31c-3.07,2.28-5.92,3.74-8.56,4.37-2.64.63-6.59.94-11.86.94h-11.68c-4.88,0-8.54-1.45-10.98-4.37-2.44-2.91-3.19-6.84-2.24-11.8l1.18-6.37c1.81-9.68,7.47-14.51,16.99-14.51h29.86l.59-3.54c.31-1.73.19-2.91-.35-3.54-.55-.63-1.69-.94-3.42-.94h-5.66c-1.5,0-2.52.26-3.07.77-.55.51-.98,1.52-1.3,3.01l-.24,1.3h-27.61l.83-5.07c1.1-6.84,3.34-11.66,6.73-14.46,3.38-2.79,8.5-4.19,15.34-4.19h28.32ZM217.43,525.02c2.05,0,3.85-.63,5.43-1.89l1.89-1.65.83-4.72h-12.63c-1.26,0-2.11.2-2.54.59-.43.39-.77,1.22-1,2.48l-.35,2.13c-.16,1.26-.06,2.09.3,2.48.35.39,1.16.59,2.42.59h5.66Z"/>
    <path class="st0" d="M281.15,541.3c-15.58,0-22.03-7.87-19.35-23.6l3.3-18.88c1.34-7.87,3.87-13.37,7.61-16.52,3.74-3.15,9.54-4.72,17.41-4.72h25.96c15.5,0,21.95,7.87,19.35,23.6l-.83,5.07h-27.61l.24-1.53c.31-1.73.2-2.91-.35-3.54-.55-.63-1.69-.94-3.42-.94h-5.43c-1.73,0-2.95.32-3.66.94-.71.63-1.22,1.81-1.54,3.54l-1.65,9.44c-.32,1.73-.2,2.91.35,3.54.55.63,1.69.94,3.42.94h5.43c1.73,0,2.95-.31,3.66-.94.71-.63,1.22-1.81,1.54-3.54l.35-2.01h27.61l-1.42,7.91c-1.42,7.95-3.97,13.47-7.67,16.58-3.7,3.11-9.48,4.66-17.35,4.66h-25.96Z"/>
    <path class="st0" d="M379.93,499.76l-2.72,15.11c-.24,1.5-.12,2.5.35,3.01.47.51,1.45.77,2.95.77h14.63l-4.01,22.66h-27.02c-13.61,0-19.2-6.76-16.76-20.3l3.78-21.24h-10.62l3.89-22.19h10.62l8.14-14.16h23.13l-2.48,14.16h18.53l-3.9,22.19h-18.53Z"/>
    <path class="st0" d="M398.45,541.3l11.31-63.72h29.24l-11.31,63.72h-29.24ZM410.39,474.04l2.72-15.34h29.24l-2.72,15.34h-29.24Z"/>
    <path class="st0" d="M459.81,541.3c-15.58,0-22.03-7.87-19.35-23.6l3.3-18.88c1.34-7.87,3.87-13.37,7.61-16.52,3.74-3.15,9.54-4.72,17.41-4.72h25.96c15.5,0,21.95,7.87,19.35,23.6l-.83,5.07h-27.61l.24-1.53c.31-1.73.2-2.91-.35-3.54-.55-.63-1.69-.94-3.42-.94h-5.43c-1.73,0-2.95.32-3.66.94-.71.63-1.22,1.81-1.54,3.54l-1.65,9.44c-.32,1.73-.2,2.91.35,3.54.55.63,1.69.94,3.42.94h5.43c1.73,0,2.95-.31,3.66-.94.71-.63,1.22-1.81,1.54-3.54l.35-2.01h27.61l-1.42,7.91c-1.42,7.95-3.97,13.47-7.67,16.58-3.7,3.11-9.48,4.66-17.35,4.66h-25.96Z"/>
    <path class="st0" d="M575.22,477.58c7.79,0,13.26,1.91,16.4,5.72,3.14,3.82,4.05,9.7,2.71,17.64l-2.12,12.27h-44.37l-.47,2.83c-.32,1.73-.2,2.91.35,3.54.55.63,1.69.94,3.42.94h8.5c1.49,0,2.54-.25,3.13-.77s1-1.51,1.24-3.01l.12-.59h27.61l-1.18,6.49c-1.26,6.85-3.54,11.66-6.85,14.46-3.3,2.79-8.34,4.19-15.1,4.19h-31.15c-15.42,0-21.79-7.79-19.12-23.37l3.31-18.88c1.34-7.87,3.91-13.41,7.73-16.64,3.81-3.23,9.65-4.84,17.52-4.84h28.32ZM550.44,498.82l-.35,1.89h16.76l.35-1.89c.31-1.73.2-2.91-.35-3.54-.55-.63-1.69-.94-3.42-.94h-7.79c-1.73,0-2.95.32-3.66.94-.71.63-1.22,1.81-1.53,3.54Z"/>
  </g>
  <path class="st1" d="M598.12,526.82l.66-3.7c1.05-5.87,6.16-10.14,12.12-10.14h7.94c7.67,0,13.47,6.93,12.12,14.48l-.66,3.7c-1.05,5.87-6.16,10.14-12.12,10.14h-7.94c-7.67,0-13.47-6.93-12.12-14.48ZM604.46,491.42l.66-3.7c1.05-5.87,6.16-10.14,12.12-10.14h7.94c7.67,0,13.47,6.93,12.12,14.48l-.66,3.7c-1.05,5.87-6.16,10.14-12.12,10.14h-7.94c-7.67,0-13.47-6.93-12.12-14.48Z"/>
  <g>
    <path class="st1" d="M638,541.3l14.63-82.61h59c15.58,0,22.03,7.87,19.35,23.6l-2.83,16.52c-1.34,7.87-3.88,13.38-7.61,16.52-3.74,3.15-9.54,4.72-17.41,4.72h-30.68l-3.78,21.24h-30.68ZM676.47,497.64h16.88c1.73,0,2.93-.31,3.6-.94.67-.63,1.16-1.81,1.48-3.54l1.18-6.37c.31-1.73.18-2.91-.41-3.54-.59-.63-1.75-.94-3.48-.94h-16.64l-2.6,15.34Z"/>
    <path class="st1" d="M786.46,477.58c15.58,0,21.99,7.79,19.23,23.37l-7.2,40.36h-24.07l-.83-5.31c-3.07,2.28-5.92,3.74-8.56,4.37-2.64.63-6.59.94-11.86.94h-11.68c-4.88,0-8.54-1.45-10.98-4.37-2.44-2.91-3.19-6.84-2.24-11.8l1.18-6.37c1.81-9.68,7.47-14.51,16.99-14.51h29.86l.59-3.54c.31-1.73.19-2.91-.35-3.54-.55-.63-1.69-.94-3.42-.94h-5.66c-1.5,0-2.52.26-3.07.77-.55.51-.98,1.52-1.3,3.01l-.24,1.3h-27.61l.83-5.07c1.1-6.84,3.34-11.66,6.73-14.46,3.38-2.79,8.5-4.19,15.34-4.19h28.32ZM765.92,525.02c2.04,0,3.85-.63,5.43-1.89l1.89-1.65.83-4.72h-12.63c-1.26,0-2.1.2-2.54.59-.43.39-.77,1.22-1,2.48l-.35,2.13c-.16,1.26-.06,2.09.3,2.48.35.39,1.16.59,2.42.59h5.67Z"/>
    <path class="st1" d="M829.64,541.3c-15.58,0-22.03-7.87-19.35-23.6l3.31-18.88c1.34-7.87,3.87-13.37,7.61-16.52,3.74-3.15,9.54-4.72,17.41-4.72h25.96c15.5,0,21.95,7.87,19.35,23.6l-.83,5.07h-27.61l.24-1.53c.31-1.73.2-2.91-.35-3.54-.55-.63-1.69-.94-3.42-.94h-5.43c-1.73,0-2.95.32-3.66.94-.71.63-1.22,1.81-1.54,3.54l-1.65,9.44c-.32,1.73-.2,2.91.35,3.54.55.63,1.69.94,3.42.94h5.43c1.73,0,2.95-.31,3.66-.94s1.22-1.81,1.54-3.54l.35-2.01h27.61l-1.42,7.91c-1.42,7.95-3.97,13.47-7.67,16.58-3.7,3.11-9.48,4.66-17.35,4.66h-25.96Z"/>
    <path class="st1" d="M945.05,477.58c7.79,0,13.26,1.91,16.4,5.72,3.15,3.82,4.05,9.7,2.72,17.64l-2.13,12.27h-44.37l-.47,2.83c-.32,1.73-.2,2.91.35,3.54.55.63,1.69.94,3.42.94h8.5c1.49,0,2.54-.25,3.13-.77s1-1.51,1.24-3.01l.12-.59h27.61l-1.18,6.49c-1.26,6.85-3.54,11.66-6.84,14.46-3.31,2.79-8.34,4.19-15.11,4.19h-31.15c-15.42,0-21.79-7.79-19.12-23.37l3.3-18.88c1.34-7.87,3.91-13.41,7.73-16.64,3.81-3.23,9.66-4.84,17.52-4.84h28.32ZM920.27,498.82l-.35,1.89h16.76l.35-1.89c.31-1.73.19-2.91-.35-3.54-.55-.63-1.69-.94-3.42-.94h-7.79c-1.73,0-2.95.32-3.66.94-.71.63-1.22,1.81-1.54,3.54Z"/>
  </g>
</svg>